<svg xmlns="http://www.w3.org/2000/svg" xmlns:xlink="http://www.w3.org/1999/xlink" xmlns:lucid="lucid" width="919.98" height="1280"><link xmlns="" type="text/css" rel="stylesheet" id="dark-mode-general-link"/><link xmlns="" type="text/css" rel="stylesheet" id="dark-mode-custom-link"/><style xmlns="" lang="en" type="text/css" id="dark-mode-custom-style"/><g transform="translate(-519 0)" lucid:page-tab-id="0_0"><path d="M742.18 312.18h-64.36v-64.36h64.36zm-61.02-3.34h57.68v-57.68h-57.68z" stroke="#fff" stroke-opacity="0"/><path d="M687.02 240h3.33v9.48h-3.33V240zM697.47 240h3.33v9.48h-3.33V240zM707.93 240h3.34v9.48h-3.34V240zM718.4 240h3.33v9.48h-3.33V240zM728.87 240h3.33v9.48h-3.33V240zM687.02 310.52h3.33V320h-3.33v-9.48zM697.47 310.52h3.33V320h-3.33v-9.48zM707.93 310.52h3.34V320h-3.34v-9.48zM718.4 310.52h3.33V320h-3.33v-9.48zM728.87 310.52h3.33V320h-3.33v-9.48zM740.52 257.42H750v3.33h-9.48v-3.33zM740.52 267.87H750v3.33h-9.48v-3.33zM740.52 278.33H750v3.34h-9.48v-3.34zM740.52 288.8H750v3.33h-9.48v-3.33zM740.52 299.25H750v3.33h-9.48v-3.33zM670 257.42h9.48v3.33H670v-3.33zM670 267.87h9.48v3.33H670v-3.33zM670 278.33h9.48v3.34H670v-3.34zM670 288.8h9.48v3.33H670v-3.33zM670 299.25h9.48v3.33H670v-3.33z" stroke="#fff" stroke-opacity="0"/><use xlink:href="#a" transform="matrix(1,0,0,1,640,329) translate(21.26543209876543 17.77777777777778)"/><use xlink:href="#b" transform="matrix(1,0,0,1,640,329) translate(29.907407407407412 44.44444444444444)"/><path d="M1337.35 560c-13.67 0-27.35 3.44-27.35 9.76v60.48c0 6.4 13.78 9.76 27.35 9.76 13.57 0 27.35-3.36 27.35-9.76v-60.48c0-6.4-13.67-9.76-27.35-9.76zm0 3.44c14.44 0 23.96 3.84 23.96 6.32 0 2.48-9.56 6.32-23.95 6.32-14.33 0-23.9-3.84-23.9-6.32 0-2.56 9.46-6.32 23.9-6.32zm0 73.12c-14.44 0-23.9-3.84-23.9-6.32v-15.2c4.92 3.2 14.5 4.8 23.9 4.8 9.46 0 19.04-1.68 23.96-4.8v15.2c0 2.48-9.5 6.32-23.95 6.32zm0-20.16c-14.44 0-23.9-3.76-23.9-6.32v-15.2c4.92 3.12 14.5 4.8 23.9 4.8 9.46 0 19.04-1.76 23.96-4.8v15.2c0 2.56-9.5 6.32-23.95 6.32zm0-20.16c-15.75 0-23.9-4.08-23.9-6.32v-15.2c4.92 3.2 14.5 4.8 23.9 4.8 9.46 0 19.04-1.6 23.96-4.8v15.2c0 2.24-8.2 6.32-23.95 6.32z" stroke="#fff" stroke-opacity="0"/><path d="M1317.86 584.3h4.05v3.42h-4.04v-3.43zM1317.86 604.45h4.05v3.43h-4.04v-3.43zM1317.86 624.6h4.05v3.45h-4.04v-3.44zM1323.88 584.3h7.15v3.42h-7.15v-3.43zM1323.88 604.45h7.15v3.43h-7.15v-3.43zM1323.88 624.6h7.15v3.45h-7.15v-3.44z" stroke="#fff" stroke-opacity="0"/><use xlink:href="#c" transform="matrix(1,0,0,1,1280,649) translate(25.46296296296297 17.77777777777778)"/><use xlink:href="#d" transform="matrix(1,0,0,1,1280,649) translate(-23.024691358024683 44.44444444444444)"/><path d="M946.17 257.77H930V240h16.17zm-12.76-3.4h9.36V243.4h-9.35zM946.17 278.5H930v-17.75h16.17zm-12.76-3.4h9.36v-10.94h-9.35zM946.17 299.25H930V281.5h16.17zm-12.76-3.4h9.36V284.9h-9.35zM946.17 320H930v-17.77h16.17zm-12.76-3.4h9.36v-10.96h-9.35zM965.32 257.77h-16.17V240h16.17zm-12.76-3.4h9.35V243.4h-9.34zM965.32 278.5h-16.17v-17.75h16.17zm-12.76-3.4h9.35v-10.94h-9.34zM965.32 299.25h-16.17V281.5h16.17zm-12.76-3.4h9.35V284.9h-9.34zM965.32 320h-16.17v-17.77h16.17zm-12.76-3.4h9.35v-10.96h-9.34zM1010 257.77h-41.7V240h41.7zm-38.28-3.4h34.86V243.4h-34.86zM1010 278.5h-41.7v-17.75h41.7zm-38.28-3.4h34.86v-10.94h-34.86zM1010 299.25h-41.7V281.5h41.7zm-38.28-3.4h34.86V284.9h-34.86zM1010 320h-41.7v-17.77h41.7zm-38.28-3.4h34.86v-10.96h-34.86z" stroke="#fff" stroke-opacity="0"/><path d="M931.5 241.6h76.77v76.56H931.5V241.6z" stroke="#fff" stroke-opacity="0" stroke-width=".4" fill="#fff" fill-opacity="0"/><use xlink:href="#e" transform="matrix(1,0,0,1,900,329) translate(43.48765432098766 17.77777777777778)"/><use xlink:href="#f" transform="matrix(1,0,0,1,900,329) translate(-16.820987654320973 44.44444444444444)"/><use xlink:href="#d" transform="matrix(1,0,0,1,900,329) translate(-10.524691358024683 71.11111111111111)"/><path d="M849.66 23.17c-1.14.1-2.05.34-2.96.8L807.26 43.4c-2.16 1.02-3.64 2.84-4.1 5.23L793.4 92.4c-.47 2.04-.12 4.08 1 5.9.13.23.24.34.47.57l27.28 35c1.48 1.94 3.52 2.97 5.9 2.97h43.9c2.38 0 4.42-1.03 5.9-2.96l27.28-35c1.48-1.94 2.05-4.22 1.48-6.6l-9.77-43.65c-.45-2.4-1.93-4.2-4.1-5.23L853.3 23.96c-1.25-.57-2.4-.9-3.64-.8z" stroke="#000" stroke-opacity="0" stroke-width="0"/><path d="M849.64 20c-1.2.12-2.16.36-3.12.84l-41.64 20.52c-2.28 1.08-3.84 3-4.32 5.52l-10.32 46.2c-.48 2.16-.12 4.32 1.08 6.24.12.24.24.36.48.6l28.8 36.96c1.56 2.04 3.72 3.12 6.24 3.12h46.32c2.52 0 4.68-1.08 6.24-3.12l28.8-36.96c1.56-2.04 2.16-4.44 1.56-6.84l-10.32-46.2c-.48-2.52-2.04-4.44-4.32-5.52l-41.64-20.52c-1.32-.6-2.52-.96-3.84-.84zm0 3.12c1.32 0 2.4.24 3.6.84l39.6 19.44c2.04 1.08 3.48 2.88 4.08 5.28l9.72 43.68c.48 2.4 0 4.56-1.44 6.48l-27.36 35.04c-1.44 1.92-3.48 3-5.88 3h-43.92c-2.4 0-4.44-1.08-5.88-3L794.8 98.84c-.12-.12-.24-.36-.36-.6-1.2-1.8-1.56-3.72-1.08-5.88l9.72-43.68c.6-2.4 1.92-4.2 4.08-5.28l39.6-19.44c.96-.48 1.8-.72 2.88-.84z" stroke="#000" stroke-opacity="0" stroke-width="0" fill="#fff"/><path d="M825.92 62.6L850 55.4l24.1 7.2-24.1 7.2zM825.92 65.36v26.4l22.43 12.84.12-32.33zM874.1 65.36v26.4l-22.45 12.84-.12-32.33z" stroke="#000" stroke-opacity="0" fill="#fff"/><use xlink:href="#g" transform="matrix(1,0,0,1,760,149) translate(54.22839506172839 17.77777777777778)"/><use xlink:href="#h" transform="matrix(1,0,0,1,760,149) translate(113.42592592592592 17.77777777777778)"/><path d="M1026.77 280h18.58m18.58 0h37.17m18.58 0h37.16m18.58 0H1194l3.03.82 2.15 2.15.82 3.03v20.53m0 20.54v41.06m0 20.54v41.06m0 20.54v41.06m0 20.54v41.06m0 20.54V594l.82 3.03 2.15 2.15 3.03.82h28.5m28.5 0h28.5" stroke="#5e5e5e" stroke-width="2" fill="none"/><path d="M1011.5 280l14.27-4.64v9.28zM1306.76 600l-14.26 4.64v-9.28z" stroke="#5e5e5e" stroke-width="2" fill="#5e5e5e"/><path d="M768.5 280H913" stroke="#5e5e5e" stroke-width="2" fill="none"/><path d="M753.24 280l14.26-4.64v9.28zM928.26 280L914 284.64v-9.28z" stroke="#5e5e5e" stroke-width="2" fill="#5e5e5e"/><path d="M610 206c0-3.3 2.7-6 6-6h468c3.3 0 6 2.7 6 6v408c0 3.3-2.7 6-6 6H616c-3.3 0-6-2.7-6-6z" fill="#fff" fill-opacity="0"/><path d="M647.2 200h31.2m15.6 0h31.2m15.6 0H772m15.6 0h31.2m15.6 0h31.2m15.6 0h31.2m15.6 0h31.2m15.6 0h31.2m15.6 0h31.2m15.6 0h15.6l3.03.82 2.15 2.15.82 3.03v15.1m0 15.12v30.22m0 15.12v30.22m0 15.1v30.23m0 15.12v30.22m0 15.12v30.22m0 15.1v30.23m0 15.12v30.22m0 15.12v30.22m0 15.1V614l-.82 3.03-2.15 2.15-3.03.82h-15.6m-15.6 0h-31.2m-15.6 0h-31.2m-15.6 0H928m-15.6 0h-31.2m-15.6 0h-31.2m-15.6 0h-31.2m-15.6 0h-31.2m-15.6 0H694m-15.6 0h-31.2m-15.6 0H616l-3.03-.82-2.15-2.15L610 614v-15.1m0-15.12v-30.22m0-15.12v-30.22m0-15.1v-30.23m0-15.12v-30.22m0-15.12v-30.22m0-15.1v-30.23m0-15.12v-30.22m0-15.12v-30.22m0-15.1V206l.82-3.03 2.15-2.15L616 200h15.6" stroke="#5a6c86" stroke-width="3" fill="none"/><g fill="none"><path d="M616 200c-3.3 0-6-2.7-6-6v-50.67c0-3.3 2.7-6 6-6h468c3.3 0 6 2.7 6 6V194c0 3.3-2.7 6-6 6z"/><path d="M1090 200c0-6.63-5.37-12-12-12H862c-6.63 0-12-5.37-12-12 0 6.63-5.37 12-12 12H622c-6.63 0-12 5.37-12 12"/><path d="M1090 200l-.4-3.1-1.2-2.9-1.9-2.5-2.5-1.9-2.9-1.2-3.1-.4h-14.4m-14.4 0h-28.8m-14.4 0h-28.8m-14.4 0H934m-14.4 0h-28.8m-14.4 0H862l-3.1-.4-2.9-1.2-2.5-1.9-1.9-2.5-1.2-2.9-.4-3.1-.4 3.1-1.2 2.9-1.9 2.5-2.5 1.9-2.9 1.2-3.1.4h-14.4m-14.4 0h-28.8m-14.4 0h-28.8m-14.4 0H694m-14.4 0h-28.8m-14.4 0H622l-3.1.4-2.9 1.2-2.5 1.9-1.9 2.5-1.2 2.9-.4 3.1" stroke="#5e5e5e" stroke-width="3"/></g><path d="M790 440h120v120H790V440z" stroke="#fff" stroke-opacity="0" stroke-width="2"/><path d="M816.8 496.84l3.02-.95 9.75 31.67-3.03.94-9.74-31.66z" stroke="#fff" stroke-opacity="0" stroke-width="1.91" fill="#fff"/><path d="M819.73 486.64l24.4-16.95 1.8 2.6-24.4 16.94-1.8-2.6z" stroke="#fff" stroke-opacity="0" stroke-width="1.64" fill="#fff"/><path d="M853.96 472.05l1.8-2.6 24.38 17.06-1.8 2.6-24.38-17.05z" stroke="#fff" stroke-opacity="0" stroke-width="1.15" fill="#fff"/><path d="M870.44 526.98l9.62-31.82 3.04.9-9.62 31.84-3.04-.92z" stroke="#fff" stroke-opacity="0" stroke-width=".58" fill="#fff"/><path d="M835.38 530.1h29.24v3.16h-29.24v-3.16zM850 474.77c-3.53 0-6.4-2.87-6.4-6.4 0-3.53 2.87-6.4 6.4-6.4 3.53 0 6.4 2.87 6.4 6.4 0 3.53-2.87 6.4-6.4 6.4zm0-9.74c-1.82 0-3.3 1.47-3.3 3.3 0 1.8 1.48 3.3 3.3 3.3 1.82 0 3.3-1.5 3.3-3.3 0-1.83-1.48-3.3-3.3-3.3z" stroke="#fff" stroke-opacity="0" stroke-width="2" fill="#fff"/><path d="M830.5 538.14c-3.54 0-6.4-2.86-6.4-6.4 0-3.53 2.86-6.4 6.4-6.4 3.53 0 6.4 2.87 6.4 6.4 0 3.54-2.87 6.4-6.4 6.4zm0-9.74h-.1c-1.82.05-3.24 1.58-3.2 3.4.06 1.8 1.57 3.25 3.4 3.2 1.82-.07 3.25-1.58 3.2-3.4-.05-1.8-1.5-3.2-3.3-3.2zM869.5 538.14c-3.53 0-6.4-2.86-6.4-6.4 0-3.53 2.87-6.4 6.4-6.4 3.54 0 6.4 2.87 6.4 6.4 0 3.54-2.86 6.4-6.4 6.4zm0-9.74h-.1c-1.83.05-3.26 1.58-3.2 3.4.05 1.8 1.56 3.25 3.38 3.2 1.83-.07 3.25-1.58 3.2-3.4-.04-1.8-1.5-3.2-3.28-3.2zM817.1 497.94c-3.53 0-6.4-2.87-6.4-6.4 0-3.54 2.87-6.4 6.4-6.4 3.54 0 6.4 2.86 6.4 6.4 0 3.53-2.86 6.4-6.4 6.4zm0-9.77h-.1c-1.82 0-3.3 1.48-3.3 3.3 0 1.82 1.48 3.3 3.3 3.3 1.83 0 3.3-1.48 3.3-3.3 0-1.8-1.4-3.24-3.2-3.3zM882.9 497.94c-3.54 0-6.4-2.87-6.4-6.4 0-3.54 2.86-6.4 6.4-6.4 3.53 0 6.4 2.86 6.4 6.4 0 3.53-2.87 6.4-6.4 6.4zm0-9.77c-1.82 0-3.3 1.48-3.3 3.3 0 1.82 1.48 3.3 3.3 3.3 1.8 0 3.3-1.48 3.3-3.3 0-1.82-1.5-3.3-3.3-3.3zM848.42 473.18h3.16v8.53h-3.16v-8.52z" stroke="#fff" stroke-opacity="0" stroke-width="2" fill="#fff"/><path d="M821.35 495.35l1.25-2.9 8.52 3.65-1.25 2.9-8.52-3.65z" stroke="#fff" stroke-opacity="0" stroke-width=".79" fill="#fff"/><path d="M831.6 527.15l4.88-7.3 2.64 1.75-4.87 7.3-2.64-1.75z" stroke="#fff" stroke-opacity="0" stroke-width="1.11" fill="#fff"/><path d="M860.87 521.6l2.63-1.75 4.88 7.3-2.64 1.76-4.87-7.3z" stroke="#fff" stroke-opacity="0" stroke-width="1.66" fill="#fff"/><path d="M868.87 496.1l8.53-3.66 1.25 2.9-8.53 3.67-1.25-2.9z" stroke="#fff" stroke-opacity="0" stroke-width="1.84" fill="#fff"/><path d="M837.33 496.4c-.84 0-1.53-.64-1.6-1.47l-.45-6.08 3.2-.23.32 4.5 4.48-.32.24 3.2-6.08.45z" stroke="#fff" stroke-opacity="0" stroke-width="2" fill="#fff"/><path d="M849.98 519.22c-8.98 0-16.3-7.25-16.36-16.26h3.2c-.02 4.3 1.85 7.96 5.32 10.52 5.84 4.36 14.1 3.15 18.47-2.72 4.37-5.86 3.16-14.12-2.68-18.48-5.87-4.36-14.14-3.15-18.5 2.72l-2.52-1.9c5.37-7.28 15.64-8.78 22.9-3.38 7.27 5.4 8.78 15.67 3.37 22.9-3.22 4.33-7.8 6.63-13.16 6.63z" stroke="#fff" stroke-opacity="0" stroke-width="2" fill="#fff"/><use xlink:href="#i" transform="matrix(1,0,0,1,759.9999999999999,569) translate(11.049382716049365 17.77777777777778)"/><use xlink:href="#j" transform="matrix(1,0,0,1,759.9999999999999,569) translate(57.90123456790122 17.77777777777778)"/><path d="M742.18 952.18h-64.36v-64.36h64.36zm-61.02-3.34h57.68v-57.68h-57.68z" stroke="#fff" stroke-opacity="0"/><path d="M687.02 880h3.33v9.48h-3.33V880zM697.47 880h3.33v9.48h-3.33V880zM707.93 880h3.34v9.48h-3.34V880zM718.4 880h3.33v9.48h-3.33V880zM728.87 880h3.33v9.48h-3.33V880zM687.02 950.52h3.33V960h-3.33v-9.48zM697.47 950.52h3.33V960h-3.33v-9.48zM707.93 950.52h3.34V960h-3.34v-9.48zM718.4 950.52h3.33V960h-3.33v-9.48zM728.87 950.52h3.33V960h-3.33v-9.48zM740.52 897.42H750v3.33h-9.48v-3.33zM740.52 907.87H750v3.33h-9.48v-3.33zM740.52 918.33H750v3.34h-9.48v-3.34zM740.52 928.8H750v3.33h-9.48v-3.33zM740.52 939.25H750v3.33h-9.48v-3.33zM670 897.42h9.48v3.33H670v-3.33zM670 907.87h9.48v3.33H670v-3.33zM670 918.33h9.48v3.34H670v-3.34zM670 928.8h9.48v3.33H670v-3.33zM670 939.25h9.48v3.33H670v-3.33z" stroke="#fff" stroke-opacity="0"/><use xlink:href="#a" transform="matrix(1,0,0,1,640,969) translate(21.26543209876543 17.77777777777778)"/><use xlink:href="#b" transform="matrix(1,0,0,1,640,969) translate(29.907407407407412 44.44444444444444)"/><path d="M946.17 897.77H930V880h16.17zm-12.76-3.4h9.36V883.4h-9.35zM946.17 918.5H930v-17.75h16.17zm-12.76-3.4h9.36v-10.94h-9.35zM946.17 939.25H930V921.5h16.17zm-12.76-3.4h9.36V924.9h-9.35zM946.17 960H930v-17.77h16.17zm-12.76-3.4h9.36v-10.96h-9.35zM965.32 897.77h-16.17V880h16.17zm-12.76-3.4h9.35V883.4h-9.34zM965.32 918.5h-16.17v-17.75h16.17zm-12.76-3.4h9.35v-10.94h-9.34zM965.32 939.25h-16.17V921.5h16.17zm-12.76-3.4h9.35V924.9h-9.34zM965.32 960h-16.17v-17.77h16.17zm-12.76-3.4h9.35v-10.96h-9.34zM1010 897.77h-41.7V880h41.7zm-38.28-3.4h34.86V883.4h-34.86zM1010 918.5h-41.7v-17.75h41.7zm-38.28-3.4h34.86v-10.94h-34.86zM1010 939.25h-41.7V921.5h41.7zm-38.28-3.4h34.86V924.9h-34.86zM1010 960h-41.7v-17.77h41.7zm-38.28-3.4h34.86v-10.96h-34.86z" stroke="#fff" stroke-opacity="0"/><path d="M931.5 881.6h76.77v76.56H931.5V881.6z" stroke="#fff" stroke-opacity="0" stroke-width=".4" fill="#fff" fill-opacity="0"/><use xlink:href="#e" transform="matrix(1,0,0,1,900,969) translate(43.48765432098766 17.77777777777778)"/><use xlink:href="#f" transform="matrix(1,0,0,1,900,969) translate(-16.820987654320973 44.44444444444444)"/><use xlink:href="#d" transform="matrix(1,0,0,1,900,969) translate(-10.524691358024683 71.11111111111111)"/><path d="M849.66 663.17c-1.14.1-2.05.34-2.96.8l-39.44 19.43c-2.16 1.02-3.64 2.84-4.1 5.23l-9.77 43.76c-.47 2.04-.12 4.08 1 5.9.13.23.24.34.47.57l27.28 35c1.48 1.94 3.52 2.97 5.9 2.97h43.9c2.38 0 4.42-1.03 5.9-2.96l27.28-35c1.48-1.94 2.05-4.22 1.48-6.6l-9.77-43.65c-.45-2.4-1.93-4.2-4.1-5.23l-39.43-19.44c-1.25-.57-2.4-.9-3.64-.8z" stroke="#000" stroke-opacity="0" stroke-width="0"/><path d="M849.64 660c-1.2.12-2.16.36-3.12.84l-41.64 20.52c-2.28 1.08-3.84 3-4.32 5.52l-10.32 46.2c-.48 2.16-.12 4.32 1.08 6.24.12.24.24.36.48.6l28.8 36.96c1.56 2.04 3.72 3.12 6.24 3.12h46.32c2.52 0 4.68-1.08 6.24-3.12l28.8-36.96c1.56-2.04 2.16-4.44 1.56-6.84l-10.32-46.2c-.48-2.52-2.04-4.44-4.32-5.52l-41.64-20.52c-1.32-.6-2.52-.96-3.84-.84zm0 3.12c1.32 0 2.4.24 3.6.84l39.6 19.44c2.04 1.08 3.48 2.88 4.08 5.28l9.72 43.68c.48 2.4 0 4.56-1.44 6.48l-27.36 35.04c-1.44 1.92-3.48 3-5.88 3h-43.92c-2.4 0-4.44-1.08-5.88-3l-27.36-35.04c-.12-.12-.24-.36-.36-.6-1.2-1.8-1.56-3.72-1.08-5.88l9.72-43.68c.6-2.4 1.92-4.2 4.08-5.28l39.6-19.44c.96-.48 1.8-.72 2.88-.84z" stroke="#000" stroke-opacity="0" stroke-width="0" fill="#fff"/><path d="M825.92 702.6l24.08-7.2 24.1 7.2-24.1 7.2zM825.92 705.36v26.4l22.43 12.84.12-32.33zM874.1 705.36v26.4l-22.45 12.84-.12-32.33z" stroke="#000" stroke-opacity="0" fill="#fff"/><use xlink:href="#g" transform="matrix(1,0,0,1,760,789.0000000000001) translate(54.22839506172839 17.77777777777778)"/><use xlink:href="#k" transform="matrix(1,0,0,1,760,789.0000000000001) translate(113.42592592592592 17.77777777777778)"/><path d="M1026.77 920h18.58m18.58 0h37.17m18.58 0h37.16m18.58 0H1194l3.03-.82 2.15-2.15.82-3.03v-20.53m0-20.54v-41.06m0-20.54v-41.06m0-20.54v-41.06m0-20.54v-41.06m0-20.54V606l.82-3.03 2.15-2.15 3.03-.82h28.5m28.5 0h28.5" stroke="#5e5e5e" stroke-width="2" fill="none"/><path d="M1011.5 920l14.27-4.64v9.28zM1306.76 600l-14.26 4.64v-9.28z" stroke="#5e5e5e" stroke-width="2" fill="#5e5e5e"/><path d="M768.5 920H913" stroke="#5e5e5e" stroke-width="2" fill="none"/><path d="M753.24 920l14.26-4.64v9.28zM928.26 920L914 924.64v-9.28z" stroke="#5e5e5e" stroke-width="2" fill="#5e5e5e"/><path d="M610 846c0-3.3 2.7-6 6-6h468c3.3 0 6 2.7 6 6v408c0 3.3-2.7 6-6 6H616c-3.3 0-6-2.7-6-6z" fill="#fff" fill-opacity="0"/><path d="M647.2 840h31.2m15.6 0h31.2m15.6 0H772m15.6 0h31.2m15.6 0h31.2m15.6 0h31.2m15.6 0h31.2m15.6 0h31.2m15.6 0h31.2m15.6 0h15.6l3.03.82 2.15 2.15.82 3.03v15.1m0 15.12v30.22m0 15.12v30.22m0 15.1v30.23m0 15.12v30.22m0 15.12v30.22m0 15.1v30.23m0 15.12v30.22m0 15.12v30.22m0 15.1V1254l-.82 3.03-2.15 2.15-3.03.82h-15.6m-15.6 0h-31.2m-15.6 0h-31.2m-15.6 0H928m-15.6 0h-31.2m-15.6 0h-31.2m-15.6 0h-31.2m-15.6 0h-31.2m-15.6 0H694m-15.6 0h-31.2m-15.6 0H616l-3.03-.82-2.15-2.15-.82-3.03v-15.1m0-15.12v-30.22m0-15.12v-30.22m0-15.1v-30.23m0-15.12v-30.22m0-15.12v-30.22m0-15.1v-30.23m0-15.12v-30.22m0-15.12v-30.22m0-15.1V846l.82-3.03 2.15-2.15L616 840h15.6" stroke="#5a6c86" stroke-width="3" fill="none"/><g fill="none"><path d="M616 840c-3.3 0-6-2.7-6-6v-50.67c0-3.3 2.7-6 6-6h468c3.3 0 6 2.7 6 6V834c0 3.3-2.7 6-6 6z"/><path d="M1090 840c0-6.63-5.37-12-12-12H862c-6.63 0-12-5.37-12-12 0 6.63-5.37 12-12 12H622c-6.63 0-12 5.37-12 12"/><path d="M1090 840l-.4-3.1-1.2-2.9-1.9-2.5-2.5-1.9-2.9-1.2-3.1-.4h-14.4m-14.4 0h-28.8m-14.4 0h-28.8m-14.4 0H934m-14.4 0h-28.8m-14.4 0H862l-3.1-.4-2.9-1.2-2.5-1.9-1.9-2.5-1.2-2.9-.4-3.1-.4 3.1-1.2 2.9-1.9 2.5-2.5 1.9-2.9 1.2-3.1.4h-14.4m-14.4 0h-28.8m-14.4 0h-28.8m-14.4 0H694m-14.4 0h-28.8m-14.4 0H622l-3.1.4-2.9 1.2-2.5 1.9-1.9 2.5-1.2 2.9-.4 3.1" stroke="#5e5e5e" stroke-width="3"/></g><path d="M790 1080h120v120H790v-120z" stroke="#fff" stroke-opacity="0" stroke-width="2"/><path d="M816.8 1136.84l3.02-.95 9.75 31.67-3.03.94-9.74-31.66z" stroke="#fff" stroke-opacity="0" stroke-width="1.91" fill="#fff"/><path d="M819.73 1126.64l24.4-16.95 1.8 2.6-24.4 16.94-1.8-2.6z" stroke="#fff" stroke-opacity="0" stroke-width="1.64" fill="#fff"/><path d="M853.96 1112.05l1.8-2.6 24.38 17.06-1.8 2.6-24.38-17.05z" stroke="#fff" stroke-opacity="0" stroke-width="1.15" fill="#fff"/><path d="M870.44 1166.98l9.62-31.82 3.04.9-9.62 31.84-3.04-.92z" stroke="#fff" stroke-opacity="0" stroke-width=".58" fill="#fff"/><path d="M835.38 1170.1h29.24v3.16h-29.24v-3.16zM850 1114.77c-3.53 0-6.4-2.87-6.4-6.4 0-3.53 2.87-6.4 6.4-6.4 3.53 0 6.4 2.87 6.4 6.4 0 3.53-2.87 6.4-6.4 6.4zm0-9.74c-1.82 0-3.3 1.47-3.3 3.3 0 1.8 1.48 3.3 3.3 3.3 1.82 0 3.3-1.5 3.3-3.3 0-1.83-1.48-3.3-3.3-3.3z" stroke="#fff" stroke-opacity="0" stroke-width="2" fill="#fff"/><path d="M830.5 1178.14c-3.54 0-6.4-2.86-6.4-6.4 0-3.53 2.86-6.4 6.4-6.4 3.53 0 6.4 2.87 6.4 6.4 0 3.54-2.87 6.4-6.4 6.4zm0-9.74h-.1c-1.82.05-3.24 1.58-3.2 3.4.06 1.8 1.57 3.25 3.4 3.2 1.82-.07 3.25-1.58 3.2-3.4-.05-1.8-1.5-3.2-3.3-3.2zM869.5 1178.14c-3.53 0-6.4-2.86-6.4-6.4 0-3.53 2.87-6.4 6.4-6.4 3.54 0 6.4 2.87 6.4 6.4 0 3.54-2.86 6.4-6.4 6.4zm0-9.74h-.1c-1.83.05-3.26 1.58-3.2 3.4.05 1.8 1.56 3.25 3.38 3.2 1.83-.07 3.25-1.58 3.2-3.4-.04-1.8-1.5-3.2-3.28-3.2zM817.1 1137.94c-3.53 0-6.4-2.87-6.4-6.4 0-3.54 2.87-6.4 6.4-6.4 3.54 0 6.4 2.86 6.4 6.4 0 3.53-2.86 6.4-6.4 6.4zm0-9.77h-.1c-1.82 0-3.3 1.48-3.3 3.3 0 1.82 1.48 3.3 3.3 3.3 1.83 0 3.3-1.48 3.3-3.3 0-1.8-1.4-3.24-3.2-3.3zM882.9 1137.94c-3.54 0-6.4-2.87-6.4-6.4 0-3.54 2.86-6.4 6.4-6.4 3.53 0 6.4 2.86 6.4 6.4 0 3.53-2.87 6.4-6.4 6.4zm0-9.77c-1.82 0-3.3 1.48-3.3 3.3 0 1.82 1.48 3.3 3.3 3.3 1.8 0 3.3-1.48 3.3-3.3 0-1.82-1.5-3.3-3.3-3.3zM848.42 1113.18h3.16v8.53h-3.16v-8.52z" stroke="#fff" stroke-opacity="0" stroke-width="2" fill="#fff"/><path d="M821.35 1135.35l1.25-2.9 8.52 3.65-1.25 2.9-8.52-3.65z" stroke="#fff" stroke-opacity="0" stroke-width=".79" fill="#fff"/><path d="M831.6 1167.15l4.88-7.3 2.64 1.75-4.87 7.3-2.64-1.75z" stroke="#fff" stroke-opacity="0" stroke-width="1.11" fill="#fff"/><path d="M860.87 1161.6l2.63-1.75 4.88 7.3-2.64 1.76-4.87-7.3z" stroke="#fff" stroke-opacity="0" stroke-width="1.66" fill="#fff"/><path d="M868.87 1136.1l8.53-3.66 1.25 2.9-8.53 3.67-1.25-2.9z" stroke="#fff" stroke-opacity="0" stroke-width="1.84" fill="#fff"/><path d="M837.33 1136.4c-.84 0-1.53-.64-1.6-1.47l-.45-6.08 3.2-.23.32 4.5 4.48-.32.24 3.2-6.08.45z" stroke="#fff" stroke-opacity="0" stroke-width="2" fill="#fff"/><path d="M849.98 1159.22c-8.98 0-16.3-7.25-16.36-16.26h3.2c-.02 4.3 1.85 7.96 5.32 10.52 5.84 4.36 14.1 3.15 18.47-2.72 4.37-5.86 3.16-14.12-2.68-18.48-5.87-4.36-14.14-3.15-18.5 2.72l-2.52-1.9c5.37-7.28 15.64-8.78 22.9-3.38 7.27 5.4 8.78 15.67 3.37 22.9-3.22 4.33-7.8 6.63-13.16 6.63z" stroke="#fff" stroke-opacity="0" stroke-width="2" fill="#fff"/><use xlink:href="#i" transform="matrix(1,0,0,1,759.9999999999999,1209) translate(11.049382716049365 17.77777777777778)"/><use xlink:href="#j" transform="matrix(1,0,0,1,759.9999999999999,1209) translate(57.90123456790122 17.77777777777778)"/><path d="M767.26 500h-4.1m-16.4 0h-8.18m-16.4 0H714m-16.4 0h-8.2m-16.38 0h-8.2m-16.38 0h-8.2m-16.4 0h-8.18m-16.4 0h-8.2m-16.38 0h-8.2m-16.38 0H546l-3.03.82-2.15 2.15L540 506v4.03m0 16.14v8.07m0 16.14v8.06m0 16.14v8.07m0 16.14v8.05m0 16.14v8.06m0 16.14v8.06m0 16.14v8.07m0 16.14v8.08m0 16.13v8.08m0 16.14v8.07m0 16.12v8.07m0 16.13v8.07m0 16.13v8.07m0 16.14v8.07m0 16.14v8.07m0 16.15v8.07m0 16.13v8.07m0 16.14v8.07m0 16.13v8.07m0 16.14v8.07m0 16.13v8.07m0 16.14v8.07m0 16.13v8.07m0 16.14v8.06m0 16.13v8.06m0 16.14v4.03l.82 3.03 2.15 2.15 3.03.83h4.1m16.4 0h8.18m16.4 0h8.2m16.38 0h8.2m16.38 0h8.2m16.4 0H673m16.4 0h8.2m16.38 0h8.2m16.38 0h8.2m16.38 0h4.1" stroke="#5e5e5e" stroke-width="4" fill="none"/><path d="M783.53 500l-14.27 4.64v-9.28zM783.53 1141.33l-14.27 4.64v-9.27z" stroke="#5e5e5e" stroke-width="4" fill="#fff"/><path d="M850 439v-33c0-3.3-2.7-6-6-6H636c-3.3 0-6-2.7-6-6V286c0-3.3 2.7-6 6-6h15.5M850 438.97V440" stroke="#5e5e5e" stroke-width="2" fill="none"/><path d="M666.76 280l-14.26 4.64v-9.28z" stroke="#5e5e5e" stroke-width="2" fill="#5e5e5e"/><path d="M850 1079v-33c0-3.3-2.7-6-6-6H636c-3.3 0-6-2.7-6-6V926c0-3.3 2.7-6 6-6h15.5" stroke="#5e5e5e" stroke-width="2" fill="none"/><path d="M851 1080h-2v-1.03h2z" fill="#5e5e5e"/><path d="M666.76 920l-14.26 4.64v-9.28z" stroke="#5e5e5e" stroke-width="2" fill="#5e5e5e"/><defs><path fill="#333" d="M30 0v-248h187v28H63v79h144v27H63v87h162V0H30" id="l"/><path fill="#333" d="M141 0L90-78 38 0H4l68-98-65-92h35l48 74 47-74h35l-64 92 68 98h-35" id="m"/><path fill="#333" d="M100-194c63 0 86 42 84 106H49c0 40 14 67 53 68 26 1 43-12 49-29l28 8c-11 28-37 45-77 45C44 4 14-33 15-96c1-61 26-98 85-98zm52 81c6-60-76-77-97-28-3 7-6 17-6 28h103" id="n"/><path fill="#333" d="M96-169c-40 0-48 33-48 73s9 75 48 75c24 0 41-14 43-38l32 2c-6 37-31 61-74 61-59 0-76-41-82-99-10-93 101-131 147-64 4 7 5 14 7 22l-32 3c-4-21-16-35-41-35" id="o"/><path fill="#333" d="M84 4C-5 8 30-112 23-190h32v120c0 31 7 50 39 49 72-2 45-101 50-169h31l1 190h-30c-1-10 1-25-2-33-11 22-28 36-60 37" id="p"/><path fill="#333" d="M59-47c-2 24 18 29 38 22v24C64 9 27 4 27-40v-127H5v-23h24l9-43h21v43h35v23H59v120" id="q"/><path fill="#333" d="M24-231v-30h32v30H24zM24 0v-190h32V0H24" id="r"/><path fill="#333" d="M117-194c89-4 53 116 60 194h-32v-121c0-31-8-49-39-48C34-167 62-67 57 0H25l-1-190h30c1 10-1 24 2 32 11-22 29-35 61-36" id="s"/><path fill="#333" d="M177-190C167-65 218 103 67 71c-23-6-38-20-44-43l32-5c15 47 100 32 89-28v-30C133-14 115 1 83 1 29 1 15-40 15-95c0-56 16-97 71-98 29-1 48 16 59 35 1-10 0-23 2-32h30zM94-22c36 0 50-32 50-73 0-42-14-75-50-75-39 0-46 34-46 75s6 73 46 73" id="t"/><g id="a"><use transform="matrix(0.06172839506172839,0,0,0.06172839506172839,0,0)" xlink:href="#l"/><use transform="matrix(0.06172839506172839,0,0,0.06172839506172839,14.814814814814813,0)" xlink:href="#m"/><use transform="matrix(0.06172839506172839,0,0,0.06172839506172839,25.925925925925924,0)" xlink:href="#n"/><use transform="matrix(0.06172839506172839,0,0,0.06172839506172839,38.2716049382716,0)" xlink:href="#o"/><use transform="matrix(0.06172839506172839,0,0,0.06172839506172839,49.38271604938271,0)" xlink:href="#p"/><use transform="matrix(0.06172839506172839,0,0,0.06172839506172839,61.728395061728385,0)" xlink:href="#q"/><use transform="matrix(0.06172839506172839,0,0,0.06172839506172839,67.90123456790123,0)" xlink:href="#r"/><use transform="matrix(0.06172839506172839,0,0,0.06172839506172839,72.77777777777777,0)" xlink:href="#s"/><use transform="matrix(0.06172839506172839,0,0,0.06172839506172839,85.12345679012346,0)" xlink:href="#t"/></g><path fill="#333" d="M30-248c87 1 191-15 191 75 0 78-77 80-158 76V0H30v-248zm33 125c57 0 124 11 124-50 0-59-68-47-124-48v98" id="u"/><path fill="#333" d="M114-163C36-179 61-72 57 0H25l-1-190h30c1 12-1 29 2 39 6-27 23-49 58-41v29" id="v"/><path fill="#333" d="M100-194c62-1 85 37 85 99 1 63-27 99-86 99S16-35 15-95c0-66 28-99 85-99zM99-20c44 1 53-31 53-75 0-43-8-75-51-75s-53 32-53 75 10 74 51 75" id="w"/><path fill="#333" d="M135-143c-3-34-86-38-87 0 15 53 115 12 119 90S17 21 10-45l28-5c4 36 97 45 98 0-10-56-113-15-118-90-4-57 82-63 122-42 12 7 21 19 24 35" id="x"/><g id="b"><use transform="matrix(0.06172839506172839,0,0,0.06172839506172839,0,0)" xlink:href="#u"/><use transform="matrix(0.06172839506172839,0,0,0.06172839506172839,14.814814814814813,0)" xlink:href="#v"/><use transform="matrix(0.06172839506172839,0,0,0.06172839506172839,22.160493827160494,0)" xlink:href="#w"/><use transform="matrix(0.06172839506172839,0,0,0.06172839506172839,34.50617283950617,0)" xlink:href="#o"/><use transform="matrix(0.06172839506172839,0,0,0.06172839506172839,45.61728395061728,0)" xlink:href="#n"/><use transform="matrix(0.06172839506172839,0,0,0.06172839506172839,57.962962962962955,0)" xlink:href="#x"/><use transform="matrix(0.06172839506172839,0,0,0.06172839506172839,69.07407407407406,0)" xlink:href="#x"/></g><path fill="#333" d="M143 4C61 4 22-44 18-125c-5-107 100-154 193-111 17 8 29 25 37 43l-32 9c-13-25-37-40-76-40-61 0-88 39-88 99 0 61 29 100 91 101 35 0 62-11 79-27v-45h-74v-28h105v86C228-13 192 4 143 4" id="y"/><path fill="#333" d="M24 0v-261h32V0H24" id="z"/><path fill="#333" d="M115-194c53 0 69 39 70 98 0 66-23 100-70 100C84 3 66-7 56-30L54 0H23l1-261h32v101c10-23 28-34 59-34zm-8 174c40 0 45-34 45-75 0-40-5-75-45-74-42 0-51 32-51 76 0 43 10 73 51 73" id="A"/><path fill="#333" d="M141-36C126-15 110 5 73 4 37 3 15-17 15-53c-1-64 63-63 125-63 3-35-9-54-41-54-24 1-41 7-42 31l-33-3c5-37 33-52 76-52 45 0 72 20 72 64v82c-1 20 7 32 28 27v20c-31 9-61-2-59-35zM48-53c0 20 12 33 32 33 41-3 63-29 60-74-43 2-92-5-92 41" id="B"/><g id="c"><use transform="matrix(0.06172839506172839,0,0,0.06172839506172839,0,0)" xlink:href="#y"/><use transform="matrix(0.06172839506172839,0,0,0.06172839506172839,17.28395061728395,0)" xlink:href="#z"/><use transform="matrix(0.06172839506172839,0,0,0.06172839506172839,22.160493827160494,0)" xlink:href="#w"/><use transform="matrix(0.06172839506172839,0,0,0.06172839506172839,34.50617283950617,0)" xlink:href="#A"/><use transform="matrix(0.06172839506172839,0,0,0.06172839506172839,46.85185185185185,0)" xlink:href="#B"/><use transform="matrix(0.06172839506172839,0,0,0.06172839506172839,59.197530864197525,0)" xlink:href="#z"/></g><path fill="#333" d="M194 0L95-120 63-95V0H30v-248h33v124l119-124h40L117-140 236 0h-42" id="C"/><path fill="#333" d="M179-190L93 31C79 59 56 82 12 73V49c39 6 53-20 64-50L1-190h34L92-34l54-156h33" id="D"/><path fill="#333" d="M16-82v-28h88v28H16" id="E"/><path fill="#333" d="M137 0h-34L2-248h35l83 218 83-218h36" id="F"/><path fill="#333" d="M185-189c-5-48-123-54-124 2 14 75 158 14 163 119 3 78-121 87-175 55-17-10-28-26-33-46l33-7c5 56 141 63 141-1 0-78-155-14-162-118-5-82 145-84 179-34 5 7 8 16 11 25" id="G"/><g id="d"><use transform="matrix(0.06172839506172839,0,0,0.06172839506172839,0,0)" xlink:href="#C"/><use transform="matrix(0.06172839506172839,0,0,0.06172839506172839,14.814814814814813,0)" xlink:href="#n"/><use transform="matrix(0.06172839506172839,0,0,0.06172839506172839,27.160493827160494,0)" xlink:href="#D"/><use transform="matrix(0.06172839506172839,0,0,0.06172839506172839,38.27160493827161,0)" xlink:href="#E"/><use transform="matrix(0.06172839506172839,0,0,0.06172839506172839,45.617283950617285,0)" xlink:href="#F"/><use transform="matrix(0.06172839506172839,0,0,0.06172839506172839,58.76543209876543,0)" xlink:href="#B"/><use transform="matrix(0.06172839506172839,0,0,0.06172839506172839,71.11111111111111,0)" xlink:href="#z"/><use transform="matrix(0.06172839506172839,0,0,0.06172839506172839,75.98765432098766,0)" xlink:href="#p"/><use transform="matrix(0.06172839506172839,0,0,0.06172839506172839,88.33333333333334,0)" xlink:href="#n"/><use transform="matrix(0.06172839506172839,0,0,0.06172839506172839,100.67901234567903,0)" xlink:href="#E"/><use transform="matrix(0.06172839506172839,0,0,0.06172839506172839,108.02469135802471,0)" xlink:href="#G"/><use transform="matrix(0.06172839506172839,0,0,0.06172839506172839,122.83950617283952,0)" xlink:href="#q"/><use transform="matrix(0.06172839506172839,0,0,0.06172839506172839,129.01234567901236,0)" xlink:href="#w"/><use transform="matrix(0.06172839506172839,0,0,0.06172839506172839,141.35802469135803,0)" xlink:href="#v"/><use transform="matrix(0.06172839506172839,0,0,0.06172839506172839,148.7037037037037,0)" xlink:href="#n"/></g><path fill="#333" d="M30 0v-248h33v221h125V0H30" id="H"/><g id="e"><use transform="matrix(0.06172839506172839,0,0,0.06172839506172839,0,0)" xlink:href="#H"/><use transform="matrix(0.06172839506172839,0,0,0.06172839506172839,12.345679012345679,0)" xlink:href="#w"/><use transform="matrix(0.06172839506172839,0,0,0.06172839506172839,24.691358024691358,0)" xlink:href="#o"/><use transform="matrix(0.06172839506172839,0,0,0.06172839506172839,35.80246913580247,0)" xlink:href="#B"/><use transform="matrix(0.06172839506172839,0,0,0.06172839506172839,48.148148148148145,0)" xlink:href="#z"/></g><path fill="#333" d="M87 75C49 33 22-17 22-94c0-76 28-126 65-167h31c-38 41-64 92-64 168S80 34 118 75H87" id="I"/><path fill="#333" d="M106-169C34-169 62-67 57 0H25v-261h32l-1 103c12-21 28-36 61-36 89 0 53 116 60 194h-32v-121c2-32-8-49-39-48" id="J"/><path fill="#333" d="M85-194c31 0 48 13 60 33l-1-100h32l1 261h-30c-2-10 0-23-3-31C134-8 116 4 85 4 32 4 16-35 15-94c0-66 23-100 70-100zm9 24c-40 0-46 34-46 75 0 40 6 74 45 74 42 0 51-32 51-76 0-42-9-74-50-73" id="K"/><path fill="#333" d="M240 0l2-218c-23 76-54 145-80 218h-23L58-218 59 0H30v-248h44l77 211c21-75 51-140 76-211h43V0h-30" id="L"/><path fill="#333" d="M210-169c-67 3-38 105-44 169h-31v-121c0-29-5-50-35-48C34-165 62-65 56 0H25l-1-190h30c1 10-1 24 2 32 10-44 99-50 107 0 11-21 27-35 58-36 85-2 47 119 55 194h-31v-121c0-29-5-49-35-48" id="M"/><path fill="#333" d="M33-261c38 41 65 92 65 168S71 34 33 75H2C39 34 66-17 66-93S39-220 2-261h31" id="N"/><g id="f"><use transform="matrix(0.06172839506172839,0,0,0.06172839506172839,0,0)" xlink:href="#I"/><use transform="matrix(0.06172839506172839,0,0,0.06172839506172839,7.345679012345679,0)" xlink:href="#G"/><use transform="matrix(0.06172839506172839,0,0,0.06172839506172839,22.160493827160494,0)" xlink:href="#J"/><use transform="matrix(0.06172839506172839,0,0,0.06172839506172839,34.50617283950617,0)" xlink:href="#B"/><use transform="matrix(0.06172839506172839,0,0,0.06172839506172839,46.85185185185185,0)" xlink:href="#v"/><use transform="matrix(0.06172839506172839,0,0,0.06172839506172839,54.197530864197525,0)" xlink:href="#n"/><use transform="matrix(0.06172839506172839,0,0,0.06172839506172839,66.5432098765432,0)" xlink:href="#K"/><use transform="matrix(0.06172839506172839,0,0,0.06172839506172839,78.88888888888889,0)" xlink:href="#E"/><use transform="matrix(0.06172839506172839,0,0,0.06172839506172839,86.23456790123457,0)" xlink:href="#L"/><use transform="matrix(0.06172839506172839,0,0,0.06172839506172839,104.69135802469135,0)" xlink:href="#n"/><use transform="matrix(0.06172839506172839,0,0,0.06172839506172839,117.03703703703704,0)" xlink:href="#M"/><use transform="matrix(0.06172839506172839,0,0,0.06172839506172839,135.49382716049382,0)" xlink:href="#w"/><use transform="matrix(0.06172839506172839,0,0,0.06172839506172839,147.8395061728395,0)" xlink:href="#v"/><use transform="matrix(0.06172839506172839,0,0,0.06172839506172839,155.18518518518516,0)" xlink:href="#D"/><use transform="matrix(0.06172839506172839,0,0,0.06172839506172839,166.29629629629628,0)" xlink:href="#N"/></g><path fill="#333" d="M190 0L58-211 59 0H30v-248h39L202-35l-2-213h31V0h-41" id="O"/><g id="g"><use transform="matrix(0.06172839506172839,0,0,0.06172839506172839,0,0)" xlink:href="#O"/><use transform="matrix(0.06172839506172839,0,0,0.06172839506172839,15.987654320987653,0)" xlink:href="#w"/><use transform="matrix(0.06172839506172839,0,0,0.06172839506172839,28.333333333333332,0)" xlink:href="#K"/><use transform="matrix(0.06172839506172839,0,0,0.06172839506172839,40.67901234567901,0)" xlink:href="#n"/></g><path fill="#333" d="M27 0v-27h64v-190l-56 39v-29l58-41h29v221h61V0H27" id="P"/><use transform="matrix(0.06172839506172839,0,0,0.06172839506172839,0,0)" xlink:href="#P" id="h"/><path fill="#333" d="M233-177c-1 41-23 64-60 70L243 0h-38l-65-103H63V0H30v-248c88 3 205-21 203 71zM63-129c60-2 137 13 137-47 0-61-80-42-137-45v92" id="Q"/><path fill="#333" d="M101-234c-31-9-42 10-38 44h38v23H63V0H32v-167H5v-23h27c-7-52 17-82 69-68v24" id="R"/><g id="i"><use transform="matrix(0.06172839506172839,0,0,0.06172839506172839,0,0)" xlink:href="#Q"/><use transform="matrix(0.06172839506172839,0,0,0.06172839506172839,15.987654320987653,0)" xlink:href="#B"/><use transform="matrix(0.06172839506172839,0,0,0.06172839506172839,28.333333333333332,0)" xlink:href="#R"/><use transform="matrix(0.06172839506172839,0,0,0.06172839506172839,34.50617283950617,0)" xlink:href="#q"/></g><path fill="#333" d="M212-179c-10-28-35-45-73-45-59 0-87 40-87 99 0 60 29 101 89 101 43 0 62-24 78-52l27 14C228-24 195 4 139 4 59 4 22-46 18-125c-6-104 99-153 187-111 19 9 31 26 39 46" id="S"/><g id="j"><use transform="matrix(0.06172839506172839,0,0,0.06172839506172839,0,0)" xlink:href="#S"/><use transform="matrix(0.06172839506172839,0,0,0.06172839506172839,15.987654320987653,0)" xlink:href="#w"/><use transform="matrix(0.06172839506172839,0,0,0.06172839506172839,28.333333333333332,0)" xlink:href="#s"/><use transform="matrix(0.06172839506172839,0,0,0.06172839506172839,40.67901234567901,0)" xlink:href="#x"/><use transform="matrix(0.06172839506172839,0,0,0.06172839506172839,51.79012345679013,0)" xlink:href="#n"/><use transform="matrix(0.06172839506172839,0,0,0.06172839506172839,64.13580246913581,0)" xlink:href="#s"/><use transform="matrix(0.06172839506172839,0,0,0.06172839506172839,76.4814814814815,0)" xlink:href="#x"/><use transform="matrix(0.06172839506172839,0,0,0.06172839506172839,87.59259259259261,0)" xlink:href="#p"/><use transform="matrix(0.06172839506172839,0,0,0.06172839506172839,99.9382716049383,0)" xlink:href="#x"/></g><path fill="#333" d="M101-251c82-7 93 87 43 132L82-64C71-53 59-42 53-27h129V0H18c2-99 128-94 128-182 0-28-16-43-45-43s-46 15-49 41l-32-3c6-41 34-60 81-64" id="T"/><use transform="matrix(0.06172839506172839,0,0,0.06172839506172839,0,0)" xlink:href="#T" id="k"/></defs></g></svg>